<?xml version="1.0" encoding="UTF-8"?>
<svg id="Capa_1" xmlns="http://www.w3.org/2000/svg" version="1.1" viewBox="0 0 1195 896">
  <!-- Generator: Adobe Illustrator 29.5.1, SVG Export Plug-In . SVG Version: 2.1.0 Build 141)  -->
  <defs>
    <style>
      .st0 {
        fill: #b7b6b4;
      }

      .st1 {
        fill: #d0d0cf;
      }

      .st2 {
        fill: #b1b0ae;
      }

      .st3 {
        fill: #e3e2e2;
      }

      .st4 {
        fill: #c1c0bf;
      }
    </style>
  </defs>
  <path class="st2" d="M944,0c9.75.51,16.33,7.35,22.49,14.23l226.7,288.24,1.81,5.53v65l-1.67,5.66-367.42,500.27c-5.31,8.93-12.28,14.62-20.9,17.07h-400c-7.05-1.68-12.95-5.85-17.71-12.52L1.82,384.63l-1.82-5.63v-62l1.76-5.55L228.69,17.29C238.31,6.71,244.14.48,259.44.48c59.86-.21,119.71-.04,179.56.52,6.97-.78,14.03-.77,21,0,7.64-.78,15.36-.77,23,0,12.64-.81,25.36-.78,38,0,16.49-.13,32.49-.46,48-1h375Z"/>
  <path class="st0" d="M569,0l-3.38,1.07c-14.87-.1-29.76-.12-44.62-.07-.87-.28-.86-.62,0-1h48Z"/>
  <path class="st4" d="M521,0v1c-12.65.04-25.35-.04-38,0-.87-.28-.86-.62,0-1h38Z"/>
  <path class="st1" d="M483,0v1c-7.65.03-15.35-.03-23,0-.87-.28-.86-.62,0-1h23Z"/>
  <path class="st3" d="M460,0v1c-6.99.02-14.01-.02-21,0V0h21Z"/>
  <path d="M920.79,65.22l191.21,244.77-1023.99,2c-.79-.69,2.9-4.95,3.6-5.89,60.27-80.64,123.75-159.1,185.1-238.9,214.6-1.24,429.38-1.83,644.08-1.98Z"/>
  <polygon points="566 377 565 833 526.5 833 320 377 566 377"/>
  <polygon points="1110 376 1104.82 384.32 775.5 833 746 833 887 376 1110 376"/>
  <polygon points="818 377 677 833 631 833 632 377 818 377"/>
  <polygon points="249 378 454 833 434.5 833 83 378 249 378"/>
</svg>